<svg xmlns="http://www.w3.org/2000/svg" width="156.756" height="42" viewBox="0 0 156.756 42">
  <g id="guanwang_logo_wz" transform="translate(22155.801 16630)">
    <path id="Path_13440" data-name="Path 13440" d="M10.371-10.328q1.423-.749,2.622,1.049.449,1.049-.375,1.5-.6,0-3.071,3.67A13.93,13.93,0,0,1,10-1.714h.449a13.777,13.777,0,0,1,2.472-.075,6.011,6.011,0,0,0,1.348,0h.449q1.273-.15,2.472,1.648Q17.637.982,16.663.982a47.78,47.78,0,0,0-6.591-1.8,12.172,12.172,0,0,1,0,2.7Q10,3.154,9.322,3.3,8.873,3.3,7.9,1.956q-.3-.375,0-1.348a8.7,8.7,0,0,0,.15-2.1v-.974a36.969,36.969,0,0,1-3.221,3.52,2.564,2.564,0,0,1-1.273.824q-.449-.225-.449-.524a5.264,5.264,0,0,0,.15-1.8q0-.449.15-.075.449.9.749.449a37.107,37.107,0,0,0,2.7-3.67,2.836,2.836,0,0,0-2.022.449,1.314,1.314,0,0,1-.375.15q-.15-.075,0-.3.9-1.348,1.423-1.5a5.876,5.876,0,0,1,1.8-.15A6.752,6.752,0,0,1,8.2-5.909a11.616,11.616,0,0,0,.749-1.049q.3-.524-.15-.075a2.27,2.27,0,0,1-1.947.824q-.974-.225-2.1-2.172-.225-.375-.15-.375.075-.075.449.15Q5.577-8.231,7-8.83A21.572,21.572,0,0,0,10.371-10.328ZM33.216-10.4q.449.6-.15.824l-.075.075a3.262,3.262,0,0,0-.974.674,2.065,2.065,0,0,0,.6.225,1.3,1.3,0,0,1,.524.15q.524.3.075.824a8.785,8.785,0,0,0-2.247,1.573,1.9,1.9,0,0,1,.749.225,1.226,1.226,0,0,0,.3-.075q.375-.075.674-.15a2.14,2.14,0,0,1,2.1.674,1.164,1.164,0,0,1,.075,1.2,3.532,3.532,0,0,1-2.622,1.5q1.273.749.674,1.124a3.112,3.112,0,0,1-.6.449,3.558,3.558,0,0,0-.9.749q1.723.6.824,1.273-.225.225-.749.674-.749.6-1.049.9a4.008,4.008,0,0,0,1.723-.225,1.136,1.136,0,0,1,.9-.075A3.643,3.643,0,0,1,34.49,3.229q.15.524-.524.449a11.072,11.072,0,0,0-5.093.375,2.981,2.981,0,0,1-1.947-.3q-.225-.524.6-1.124A2.708,2.708,0,0,0,29.4,1.656a1.58,1.58,0,0,1-1.8-.449A1.037,1.037,0,0,1,28.048.083a1.41,1.41,0,0,0,1.348-.6,2.08,2.08,0,0,1-2.022-.824q-.225-.449.15-.524.749-.225,2.022-.749.375-.15.524-.225a4.708,4.708,0,0,1,.075-.749,2.628,2.628,0,0,1,.075-.749,19.486,19.486,0,0,0-4.12,2.7q-.375.375-.524.3a2.065,2.065,0,0,1-.225-.6q-.075-1.5.524-1.8a10.471,10.471,0,0,0,3.3-2.172.731.731,0,0,0,.15-.524,2.563,2.563,0,0,1-1.947-.3.865.865,0,0,1,0-.974,8.167,8.167,0,0,0,.974-.375,1.6,1.6,0,0,1-.225-2.172A1.8,1.8,0,0,0,28.872-11a.49.49,0,0,1,.225-.225q.075,0,.075.225-.075.6,0,.674t.449-.225a2.577,2.577,0,0,1,1.873-.974Q32.392-11.6,33.216-10.4Zm-2.022-.9a2.516,2.516,0,0,0-1.423,1.723q-.3.6-.674,1.2a8.145,8.145,0,0,0,2.472-2.1Q31.943-11.077,31.194-11.3Zm2.1,6.142q0-.524-1.2.075a3.472,3.472,0,0,0-.449,1.423Q33.216-4.336,33.291-5.16ZM23.7-6.134A3.282,3.282,0,0,1,24-3.512a14.685,14.685,0,0,0-.15,5.468,4.011,4.011,0,0,1,0,2.172.813.813,0,0,1-.15.3q-.075,0-.3-.225a2.3,2.3,0,0,1-.9-2.022V1.057q0-2.4.075-3.146a17.736,17.736,0,0,0,.075-2.7,9.425,9.425,0,0,1-1.124,1.423q-.6.674-1.124-.15a2.321,2.321,0,0,1-.15-.449.575.575,0,0,1-.075-.225,2.115,2.115,0,0,1,.15-1.348,14.374,14.374,0,0,0,2.921-4.344q.225-.524.075-.674-.15-.3-.075-.375.075-.15.449-.075,1.648.075,1.873,1.049.375.824-.15,1.2a14.623,14.623,0,0,0-.9,1.273,3.387,3.387,0,0,0-.3.449A2.51,2.51,0,0,1,23.7-6.134Zm22.1-5.243a2.942,2.942,0,0,1,2.4.449.713.713,0,0,1,.375,1.049,8.707,8.707,0,0,0-.225,2.1A15.35,15.35,0,0,1,49.994-9.5l.6-.6q.6-.6.225-.674-.15-.075.15-.3a1.136,1.136,0,0,1,1.348.749q.225.524-.15.749-.225.15-.6.375.824.075,1.124,1.273.225.674-.449.674a2.377,2.377,0,0,1-1.648-.749,20.038,20.038,0,0,0-2.247,2.1,2.355,2.355,0,0,1,2.472.524,1.747,1.747,0,0,1,.524,1.5A24.312,24.312,0,0,0,51.418.308a5.856,5.856,0,0,1-.9,4.12q-.3.449-.449.449-.075,0-.225-.375A5.956,5.956,0,0,0,48.721,2.48,6.292,6.292,0,0,0,46.249,3q-.749.375-.974-.075A2.848,2.848,0,0,1,44.826.907a24.069,24.069,0,0,0,.15-3.52Q40.257,1.731,38.16,1.581q-.3,0-.3-.075t.3-.225a23.159,23.159,0,0,0,6.517-5.243q-.3-.3-.15-.449.075-.15.674-.075a8.278,8.278,0,0,0,.824-.9,5.191,5.191,0,0,0-.749-.749q.449.3-.15-.075-.524-.449.15-.15,1.273.524,1.348-.449.524-3-.9-3.895a.647.647,0,0,1-.225-.449Q45.5-11.3,45.8-11.377ZM43.028-8.531q.9.225.824.974A8.72,8.72,0,0,1,45.5-8.306q.3-.15.375-.075t-.15.3q-2.172,2.4-3.071,3.3-.674.524-.824-.15a2.909,2.909,0,0,0-.225-1.273q-.15-.375.3-.6a1.438,1.438,0,0,0,.824-1.423Q42.654-8.531,43.028-8.531ZM49.62-4.86q-.075-.375-.15-.375-.075-.075-.3.15a1.441,1.441,0,0,1-1.348.225q-.524.824-.974.524l-.15.15q-.375.3-.524.449.15.15,0,.6a5.463,5.463,0,0,0,1.049-.375.813.813,0,0,0,.3-.15q.3-.3,1.049.225.524.524.225.9a8.22,8.22,0,0,0-1.049.449,4.11,4.11,0,0,1-.524.225,1.631,1.631,0,0,1-1.2,0v.375a4.506,4.506,0,0,0-.075.674,8.995,8.995,0,0,0,1.273-.3,2.321,2.321,0,0,0,.449-.15q.524-.3,1.2.375.449.449,0,.674A1.932,1.932,0,0,0,47.9.233a6.369,6.369,0,0,1-1.049.6q-.3.15-.075-.15.15-.15.15-.225t-.15-.075a1.043,1.043,0,0,0-.449-.075A1.232,1.232,0,0,0,45.95.233a2.049,2.049,0,0,0,.075.449,2.917,2.917,0,0,0,.15,1.049A10.953,10.953,0,0,1,48.2,1.207q.824,0,1.2,1.049.3.15.3-.3A28.067,28.067,0,0,0,49.62-4.86ZM67.971-7.632q-.974-2.921-1.947-3.52-.3-.225.375-.3a4.219,4.219,0,0,1,1.648.15.916.916,0,0,1,.524.824,9.216,9.216,0,0,0,.524,2.1l.225-.225a2.232,2.232,0,0,0,.3-.225,1.7,1.7,0,0,1,1.573,0q.449.225,0,.6a13.609,13.609,0,0,0-1.648,1.124,8.22,8.22,0,0,1,.449,1.049q.974-.9.449-1.049a.432.432,0,0,1-.15-.3.3.3,0,0,1,.3-.15,1.037,1.037,0,0,1,1.124.449q.449.375-.075,1.049a10.474,10.474,0,0,1-1.124.974q.375.674.674,1.2a2.931,2.931,0,0,1,.375.674q.375.3.3.375,0,.15-.375.3a.925.925,0,0,0-.524.225A2.746,2.746,0,0,1,72.315-1.19q.3.375-.225.749a3.044,3.044,0,0,0-.749.674q-.075.075-.449.375l-.524.524a8.86,8.86,0,0,0,2.1,2.022A.464.464,0,0,0,72.989,3a5.939,5.939,0,0,0,.3-1.947q0-.225.15-.225.075,0,.075.225a15,15,0,0,0,.674,3.82.63.63,0,0,1-.075.524q-.15.15-.449,0a14.509,14.509,0,0,1-4.344-3.52,4.723,4.723,0,0,1-3.52.674q-.3-.075-.3-.225t.3-.225A7.259,7.259,0,0,0,68.645.757q-.3-.449-.749-1.273a4.533,4.533,0,0,1-.375.3,3.386,3.386,0,0,1-.449.3q-.6.524-1.947-.749-.3-.375.075-.449A9.383,9.383,0,0,0,67-1.789q-.075.075.225-.075a4.381,4.381,0,0,0-1.573-2.1q-.225-.225.075-.375a2.011,2.011,0,0,1,2.1.375,10.073,10.073,0,0,0,1.348-1.273,5.777,5.777,0,0,0-.3-.674,2.52,2.52,0,0,0-.375-.6q-.225.225-.824.749-.674.824-2.247-.3a.432.432,0,0,1-.15-.3.813.813,0,0,1,.3-.15A5.178,5.178,0,0,0,67.971-7.632ZM72.166-8.98a3.9,3.9,0,0,0-1.2-.15q-.3,0-.3-.075l.15-.15q.449-.225.15-.449a2.644,2.644,0,0,0-.9-.674.216.216,0,0,1-.075-.15.305.305,0,0,1,.225-.075q2.322-.075,2.472,1.2Q72.765-8.905,72.166-8.98ZM68.5-2.538q.6-.3.974-.524l.075-.075a1.687,1.687,0,0,1,.6-.3l-.225-.449a4.534,4.534,0,0,0-.3-.375q-.225.15-.6.375a3.183,3.183,0,0,1-.824.524,4.11,4.11,0,0,0,.225.524A1.226,1.226,0,0,1,68.5-2.538ZM69.02-1.19a7.634,7.634,0,0,0,.6,1.124l.449-.449a2.556,2.556,0,0,0,.524-.524q.449-.674-.15-1.049a.813.813,0,0,1-.3.15A10.749,10.749,0,0,0,69.02-1.19Zm2.547-2.547q.449-.15.375-.3,0-.225-.524-.674a.216.216,0,0,1-.075-.15.305.305,0,0,1,.225-.075q2.7.15,2.1,1.723-.15.524-.6.225a2.193,2.193,0,0,0-1.5-.524.066.066,0,0,1-.075-.075A.216.216,0,0,1,71.566-3.737ZM58.234-1.115A42.3,42.3,0,0,0,61.979-8.68q.3-.824,0-1.124a.432.432,0,0,1-.15-.3.3.3,0,0,1,.3-.15,2.121,2.121,0,0,1,1.648.674.415.415,0,0,1,.075.524q-.3.524-.524.9a6.819,6.819,0,0,1,1.049-.749q1.124-.225,1.5.6.075.449-.15.6a4.089,4.089,0,0,0-1.5,1.648,1.216,1.216,0,0,1,1.2.6.239.239,0,0,1-.075.375A4.661,4.661,0,0,0,64-3.812a.715.715,0,0,1,.824.225q.225.15,0,.3a.813.813,0,0,1-.3.15l-.749.375a8.707,8.707,0,0,0-.225,2.1.216.216,0,0,1,.075-.15,4.557,4.557,0,0,1,.524-.674q.075-.225-.3-.375a.066.066,0,0,1-.075-.075.216.216,0,0,1,.075-.15q.824-.6,1.5.375a.239.239,0,0,1-.075.375,14.857,14.857,0,0,0-1.8,1.8V.682A3.683,3.683,0,0,1,65.125.608q.3.225,0,.449a.575.575,0,0,0-.225.075q-2.4,1.124-3.371,1.723a1.86,1.86,0,0,1-.674.075,5.812,5.812,0,0,1-.749-.3q-.3-.375,0-.524a1.9,1.9,0,0,0,1.2-.524q.449-.375,1.2-1.124V-2.014a3.746,3.746,0,0,0-.524.375,2.9,2.9,0,0,0-.524.375,1.139,1.139,0,0,0,.3.6,1.179,1.179,0,0,1,.449-.3q.225-.075.15.15a1.555,1.555,0,0,0-.449.749,1.715,1.715,0,0,1-.225.9q0,.225-.3.075a1.76,1.76,0,0,1-.524-1.049,4.21,4.21,0,0,1,.15-.974,2.1,2.1,0,0,1-.824-.524q-.225-.225.075-.375A1.338,1.338,0,0,0,61.3-2.538a14.347,14.347,0,0,0,1.124-.974v-.15A2.149,2.149,0,0,1,61.3-4.186Q59.432-.741,58.009.083q-.375.15-.375-.15-.075-.6.15-.749A.48.48,0,0,0,58.234-1.115ZM61.6-4.785a2.9,2.9,0,0,1,.524-.375,1.174,1.174,0,0,1,.3-.225,9.945,9.945,0,0,0,1.2-1.648,1.707,1.707,0,0,1-.674-.375l-.6,1.2Q61.9-5.31,61.6-4.785ZM79.431,5.7l-.225-.15a2.739,2.739,0,0,0,1.648-2.472h-.3a1.029,1.029,0,0,1-.9-.225,1.319,1.319,0,0,1-.449-1.423A1.373,1.373,0,0,1,80.555.682q1.8.15,1.423,2.4A3.649,3.649,0,0,1,79.431,5.7ZM92.424-9.28A2.689,2.689,0,0,1,93.7-10.1a16.565,16.565,0,0,1,2.022-.375,7.972,7.972,0,0,0,1.573-.3,2.153,2.153,0,0,1,1.873.9q.375.3,0,.6a6.5,6.5,0,0,0-.524.674q-.3.375-.449.524a12.318,12.318,0,0,1-.974,1.049q-.3.225-.449.15t-.075-.449q-1.5.6-3.3,1.5-.9.449-.15-.15l.3-.3a.871.871,0,0,0,.225-.15q.15-.15,0-.075a1.314,1.314,0,0,0-.375.15.575.575,0,0,1-.225.075q-.15.15-.225.15-.15,0-.225-.225a3.4,3.4,0,0,1-.6-1.348q-.225-.9-.524-1.049a.813.813,0,0,1-.15-.3.216.216,0,0,1-.075-.15q0-.375.225-.375A2.33,2.33,0,0,1,92.424-9.28Zm3.6,1.2h.749a3.536,3.536,0,0,0,.749-1.648q0-.3-.375-.3a1.226,1.226,0,0,0-.3.075,4.774,4.774,0,0,0-.674.15q.524.524.15.9a4.11,4.11,0,0,1-.225.524A1.226,1.226,0,0,0,96.019-8.081Zm-1.5.375q.9-.225.749-1.873a4.4,4.4,0,0,1-1.049.15A4.506,4.506,0,0,1,94.521-7.707Zm-1.648-.824A6.242,6.242,0,0,0,93.1-7.107l.449-.225a2.906,2.906,0,0,0,.375-.15.665.665,0,0,0-.075-.3q-.075-.3-.15-.524-.075-.3-.15-.749a1.232,1.232,0,0,1-.075-.375Q92.874-9.429,92.874-8.531ZM88.454-4.486a3.283,3.283,0,0,1,.3-.6,5.774,5.774,0,0,0,.3-.674q.225-.225-.075-.3a4.354,4.354,0,0,1-1.049-.824q-.15-.15-.075-.15,0-.075.15-.15a1.425,1.425,0,0,1,1.423,0,2.034,2.034,0,0,1,1.273.9.386.386,0,0,1-.15.6A3.8,3.8,0,0,0,88.6-4.411Q88.379-4.036,88.454-4.486Zm6.666.749a1.688,1.688,0,0,1,.6.3,5.647,5.647,0,0,0,.824-.974q.449-.375-.15-.749l-.3.3A4.705,4.705,0,0,0,95.121-3.737Zm.9,4.195a10.836,10.836,0,0,0,1.573.15.305.305,0,0,0,.225-.075.24.24,0,0,0-.15-.225,1.768,1.768,0,0,0-.824-.375q-.3-.3-.824.225Zm1.648-7.34q1.273-.449,1.8.375a.43.43,0,0,1,.075.524.731.731,0,0,1-.524.15,3.775,3.775,0,0,0-2.247.449,1.161,1.161,0,0,1,1.273.524q.225.524-.15.674A9.506,9.506,0,0,0,95.87-1.864a6.915,6.915,0,0,0,.075.974,1.079,1.079,0,0,0,.749-.375l1.2-1.2q.674-.6.075-.974-.3-.225.075-.15a1.434,1.434,0,0,1,1.124.749q.375.375-.075.674-.3.225-1.049.824-.6.449-.824.6a8.883,8.883,0,0,1,.974.225,1.535,1.535,0,0,1,1.423,1.723q0,.449-.375.3a6.805,6.805,0,0,0-2.022-.6,2.49,2.49,0,0,0-.6-.15,1.726,1.726,0,0,0-.6-.15,3.706,3.706,0,0,1-.375,1.873,20.217,20.217,0,0,0,3.97.375,8.317,8.317,0,0,1,2.846.375q.3.075.3.15t-.3.225q-2.921,1.573-5.018.524A44.5,44.5,0,0,0,91.6,2.78a4.27,4.27,0,0,0-1.947,0A1.218,1.218,0,0,1,88,2.031q-.15-.225-.075-.3,0-.075.225,0a2.153,2.153,0,0,0,1.873.075A1.142,1.142,0,0,0,89.578.757a1.681,1.681,0,0,1-.524-2.172q.225-.449-.15-.6A3.878,3.878,0,0,1,87.63-3.063q-.075-.449.375-.375a1.992,1.992,0,0,0,1.049.15,1.382,1.382,0,0,1,1.5.974q.225.449-.075.674a2.282,2.282,0,0,0-.524.749.463.463,0,0,0,.15.6,2.385,2.385,0,0,1,.674,2.1h.15q1.423.15,2.547.375a8.314,8.314,0,0,1,1.573.225,1.648,1.648,0,0,1-.3-1.423,3.81,3.81,0,0,0,.225-1.723A10.2,10.2,0,0,1,92.05,1.506a1.226,1.226,0,0,1-.3.075q-.075-.075,0-.3.075-.15.3-.749A2.907,2.907,0,0,1,92.2.158q.075-.375.075,0-.075.375,0,.375.075.075.375-.15a25.833,25.833,0,0,0,2.1-2.547.4.4,0,0,0-.524-.375.216.216,0,0,0-.15.075,5.658,5.658,0,0,1-1.423.749q-.3.225-.375-.15a1.229,1.229,0,0,1,0-1.049.294.294,0,0,1,.3-.225,2.034,2.034,0,0,0,.674-.3,7.139,7.139,0,0,0,1.573-1.648,7.741,7.741,0,0,0-2.1.824A1.772,1.772,0,0,1,90.4-4.711q-.15-.15-.075-.15,0-.075.15-.075a2.252,2.252,0,0,0,.375-.075,1.414,1.414,0,0,1,.449-.075,38.735,38.735,0,0,1,4.045-1.049Q96.918-6.583,97.667-6.883Zm18.051-4.269a17.272,17.272,0,0,1,1.573,2.322,9.411,9.411,0,0,0,.674-1.723q.15-.375.449,0a2.032,2.032,0,0,1,.449,2.022,10.479,10.479,0,0,0-.824,1.2,19.184,19.184,0,0,1,1.2,3.3q.15.749-.524.824a6.893,6.893,0,0,0-2.921,1.723,6.107,6.107,0,0,0,.075,2.172q0,.15.075.15.075.075.225-.075a16.14,16.14,0,0,0,2.247-1.573.876.876,0,0,1,1.348-.075,1.51,1.51,0,0,1,.749,1.5,1.142,1.142,0,0,1-.449,1.049q-1.273,1.273-2.172.524l-.15-.15q0-.075.15-.15a1.9,1.9,0,0,0,.974-1.5q-.075-.3-.375-.075-.375.449-1.5,1.573a9.191,9.191,0,0,0-.824.974.427.427,0,0,1-.449.15,2.244,2.244,0,0,1-1.049-1.5A2.2,2.2,0,0,1,114.6.982a1.962,1.962,0,0,0,0-1.124V-.516q-.974.524-1.2-.974-.075-.9.375-.9.3,0,1.273-2.4a7.729,7.729,0,0,0,.15-1.648q-1.049,1.573-1.947,3.221a6.309,6.309,0,0,1-.15,1.124,3.156,3.156,0,0,0-.075.524,12.551,12.551,0,0,0-.15,2.846,3.35,3.35,0,0,1-.449,1.873q-.225.375-.6,0A25.451,25.451,0,0,1,109.876.083a1.336,1.336,0,0,1,.225-1.873q.15-.15.6-.674l.974-.974a2.03,2.03,0,0,0-.225-.974q-.225-.075-.749.375a5.689,5.689,0,0,0-1.2,3.67,15.662,15.662,0,0,1,0,3.071.871.871,0,0,1-.15.225q-.075,0-.15-.15a3.81,3.81,0,0,1-.824-2.846,16.532,16.532,0,0,1,2.172-6.142q.3-.375-.15-.15a12.777,12.777,0,0,0-2.1,1.573q-.974.749-1.8,1.273-.3.225-.449-.075a5.025,5.025,0,0,1-.449-1.573.537.537,0,0,1,.3-.524q1.573-.375,3.446-3.6.225-.449,0-.674l-.15-.15.15-.15a.375.375,0,0,1,.449,0,2.231,2.231,0,0,0,.3.225,2.94,2.94,0,0,1,.9.674q.6.375,0,.9a3.717,3.717,0,0,1-.824.674.318.318,0,0,0,0,.3.187.187,0,0,0,.3,0q.6-.375,1.124-.749a1.406,1.406,0,0,1,1.648,0q.375.749-.674,1.348A3.87,3.87,0,0,0,111-5.235a1.433,1.433,0,0,1,1.723.6q.9-.9,1.273-1.348.3-.3.974-1.124a1.607,1.607,0,0,0,.3-.375,3.071,3.071,0,0,0,0-1.348,3.1,3.1,0,0,1,.075-2.247q.075-.225.15-.225T115.719-11.152Zm1.049,2.172q-.075-.225-.225-.225a.434.434,0,0,0-.075.3,4.146,4.146,0,0,1,0,1.573,2.429,2.429,0,0,0,.375-.674,1.734,1.734,0,0,1,.225-.375A1.688,1.688,0,0,0,116.767-8.98Zm1.049,2.1q-.15.225-.449.6-.824,1.2-1.2,1.723-.075.3-.225.974a2.252,2.252,0,0,0-.075.375q1.124-.449,2.1-.9.6-.225.449-.6A4.322,4.322,0,0,0,117.816-6.883Zm-5.992,5.618a4.91,4.91,0,0,1-.749.6q.075-.075-.225.15-.674.6.449,1.273.449.225.449-.15a10.146,10.146,0,0,1,.075-1.049ZM129.8-4.336a23.622,23.622,0,0,1,.075-3.146.489.489,0,0,0-.375-.6q-1.573-.15-1.723.974v.524a4.6,4.6,0,0,0-.075.6.575.575,0,0,0,.225-.075,1.207,1.207,0,0,1,.524-.15.759.759,0,0,1,.824.225q.3.225,0,.6a5.3,5.3,0,0,1-1.8,1.723v.524q.449-.225.974-.449a.728.728,0,0,1,.9.449.494.494,0,0,1,0,.524,1.336,1.336,0,0,1-1.049.749q-.225,0-.075-.15l.375-.375q.15-.225-.15-.15-.449.15-.974.375V-.591l.3-.15A.575.575,0,0,1,128-.816a.7.7,0,0,0,.449-.375.778.778,0,0,1,.6-.075q.449.075.375.449a2.32,2.32,0,0,0-.15.449.772.772,0,0,0-.15.3l.15.15a2.231,2.231,0,0,1,.3.225A12.045,12.045,0,0,0,129.8-4.336Zm-2.322.3a1.332,1.332,0,0,0,.824-.9.794.794,0,0,0-.674,0,3.736,3.736,0,0,1-.075.449A1.043,1.043,0,0,1,127.479-4.036Zm1.5,4.195a.216.216,0,0,1-.075.15.216.216,0,0,0-.075.15,1.688,1.688,0,0,1,.6.3A1.544,1.544,0,0,0,128.977.158Zm1.947,3.071a.483.483,0,0,1-.375,0,3.19,3.19,0,0,1-1.124-1.423,3.95,3.95,0,0,0-.749-1.2,5.81,5.81,0,0,1-2.472,2.547q-.15.075-.225,0a.575.575,0,0,1,.075-.225A18.373,18.373,0,0,0,128.078.008a12.891,12.891,0,0,1-2.622,1.273.415.415,0,0,1-.524-.075.95.95,0,0,1,0-.9q.225-.3.375-.15a.415.415,0,0,0,.524.075,2.494,2.494,0,0,0,.9-.449,8.762,8.762,0,0,1-.15-4.195,26.24,26.24,0,0,0,.225-3.221q0-.225.15-.075.075,0,.15.15.15.15.15.225a2.673,2.673,0,0,1,1.348-1.8,1.34,1.34,0,0,1,.974-.075q.674.3,1.348.674a.832.832,0,0,1,.3.824,4.136,4.136,0,0,0-.3,1.273v.225q-.15,1.423-.15,5.018a5.019,5.019,0,0,1-.6,2.4,2.124,2.124,0,0,1,.674.9A2.358,2.358,0,0,1,130.924,3.229ZM135.793-11.6a1.66,1.66,0,0,1,.524.075,1.343,1.343,0,0,0,.674.225,1.03,1.03,0,0,1,.674.9.515.515,0,0,1-.225.674,5.068,5.068,0,0,0-1.348,1.2q-.15.225.3,0,.524-.524,1.2.075.749.674.075.9a1.733,1.733,0,0,1-.375.225q-.524.375-.9.674v.524a.834.834,0,0,1,.375-.075,1.226,1.226,0,0,1,.3-.075h.15a1.729,1.729,0,0,1,1.049,0q1.273.674,1.2,1.273a.712.712,0,0,1-.3.6,1.1,1.1,0,0,1,.674.824q.075.449-.3.449a7.454,7.454,0,0,0-1.124-.225,9.725,9.725,0,0,1-1.124,1.2h.524q.075-.075.3.15l.3.3a.415.415,0,0,1,.075.524q-.075.225-.524.075a5.717,5.717,0,0,0-1.648-.225,7.972,7.972,0,0,0,.075.824v.6a3.415,3.415,0,0,1,1.423,0h.524q.524-.075,1.049.674a2.289,2.289,0,0,1,0,1.2q-.15.674-.674.3a.434.434,0,0,0-.3-.075.665.665,0,0,0-.3-.075h-.15a2,2,0,0,1-.824-.3q-.225,0-.075-.15.749-.3.749-.749.075-.674-1.348-.524.3,2.921-.3,3.82-.225.449-.6-.3a4.625,4.625,0,0,0-.524-.824q0-.075-.15-.225-.225-.524-.3-.749-.075-.15,0-.15.075-.075.225,0,.749.225.674-.15a8.045,8.045,0,0,0-.075-1.348,1.985,1.985,0,0,0-.974.3A7.324,7.324,0,0,1,134.07,3.6q-.225.3-.3.15a1.725,1.725,0,0,1-.225-.449,1.225,1.225,0,0,0-.075-.3l-.075-.15a1.742,1.742,0,0,1-.075-.9.575.575,0,0,1,.075-.225,1.414,1.414,0,0,0,.075-.449,3.672,3.672,0,0,0-1.348,1.273q-.449.674-.674.225-.749-1.348-.225-1.723a3.3,3.3,0,0,0,.449-1.124q.075-.3.3-.15.375.15.225.9,0,.449.375.3.225-.075.749-.3a1.226,1.226,0,0,1,.3-.075V-.067a6.083,6.083,0,0,0,.075-.749,2.356,2.356,0,0,0-.824.3.575.575,0,0,1-.225.075q-.674.225-.824-.225a.53.53,0,0,1,.225-.749q.374-.15.524,0l.375-.075a1.226,1.226,0,0,0,.3-.075,1.092,1.092,0,0,0,.449-.15V-2.838q-.15.075-.674.3a1.314,1.314,0,0,1-.375.15q-.524.3-1.049-.3-.225-.225.075-.375.374-.15,1.648-.674a1.314,1.314,0,0,1,.375-.15v-.674a13.327,13.327,0,0,1-1.348.749.357.357,0,0,1-.524-.225,1.2,1.2,0,0,1,0-.6q.3-.225.375-.15a2.37,2.37,0,0,0,.524-.225q.449-.225.824-.449a.24.24,0,0,0-.15-.225q-.225-.375-.075-.524a1.618,1.618,0,0,1-1.423-.15.24.24,0,0,1-.15-.225q0-.075.15-.075a3.027,3.027,0,0,0,.974-.6l-.225-.449a3.663,3.663,0,0,1-.225-.375.216.216,0,0,0-.075-.15q-.075-.225,0-.3a1.975,1.975,0,0,0,.15-1.5q0-.15.075-.15a.24.24,0,0,1,.225.15q.225.524.6.3a6.827,6.827,0,0,0,1.5-1.049q.375-.3-.075.524a16.313,16.313,0,0,0-1.2,2.622q1.049-.3,2.322-2.322a.951.951,0,0,0,.225-.9,1.544,1.544,0,0,0-.449-.6Q135.568-11.6,135.793-11.6Zm0,4.045a11.237,11.237,0,0,0-2.1,1.2q.374-.15.749.3a2.231,2.231,0,0,1,.3-.225l.225-.225q-.075-.524.674-.6a2.132,2.132,0,0,0,.375-.449Q136.092-7.632,135.793-7.557Zm.524,2.022v.974q.749-.075,1.423-.075.449-.824-.075-.9A2.989,2.989,0,0,0,136.317-5.534Zm-.974.3a1.213,1.213,0,0,0-.749.225v.824a2.662,2.662,0,0,1,.749-.225Zm1.8,1.648h-.824a9.189,9.189,0,0,0-.075,1.273A2.5,2.5,0,0,0,137.141-3.587Zm-1.8.15q-.3.075-.749.225v1.348a1.668,1.668,0,0,1,.749-.15Zm0,2.247a4.506,4.506,0,0,0-.674.075q.3-.075-.15.075-.075.9-.075,1.423a4.017,4.017,0,0,1,.974-.225V-.516A4.508,4.508,0,0,1,135.343-1.19Zm18.276-6.442q-.974-2.921-1.947-3.52-.3-.225.375-.3a4.219,4.219,0,0,1,1.648.15.916.916,0,0,1,.524.824,9.216,9.216,0,0,0,.524,2.1l.225-.225a2.233,2.233,0,0,0,.3-.225,1.7,1.7,0,0,1,1.573,0q.449.225,0,.6a13.611,13.611,0,0,0-1.648,1.124,8.22,8.22,0,0,1,.449,1.049q.974-.9.449-1.049a.432.432,0,0,1-.15-.3.3.3,0,0,1,.3-.15,1.037,1.037,0,0,1,1.124.449q.449.375-.075,1.049a10.474,10.474,0,0,1-1.124.974q.374.674.674,1.2a2.931,2.931,0,0,1,.375.674q.375.3.3.375,0,.15-.375.3a.925.925,0,0,0-.524.225,2.746,2.746,0,0,1,1.348,1.124q.3.375-.225.749a3.044,3.044,0,0,0-.749.674q-.075.075-.449.375l-.524.524a8.86,8.86,0,0,0,2.1,2.022.464.464,0,0,0,.524-.15,5.939,5.939,0,0,0,.3-1.947q0-.225.15-.225.075,0,.075.225a15,15,0,0,0,.674,3.82.63.63,0,0,1-.075.524q-.15.15-.449,0a14.509,14.509,0,0,1-4.344-3.52,4.723,4.723,0,0,1-3.52.674q-.3-.075-.3-.225t.3-.225A7.259,7.259,0,0,0,154.294.757q-.3-.449-.749-1.273a4.529,4.529,0,0,1-.375.3,3.387,3.387,0,0,1-.449.3q-.6.524-1.947-.749-.3-.375.075-.449a9.383,9.383,0,0,0,1.8-.674q-.075.075.225-.075a4.381,4.381,0,0,0-1.573-2.1q-.225-.225.075-.375a2.011,2.011,0,0,1,2.1.375,10.073,10.073,0,0,0,1.348-1.273,5.772,5.772,0,0,0-.3-.674,2.52,2.52,0,0,0-.375-.6q-.225.225-.824.749-.674.824-2.247-.3a.432.432,0,0,1-.15-.3.813.813,0,0,1,.3-.15A5.177,5.177,0,0,0,153.619-7.632Zm4.195-1.348a3.9,3.9,0,0,0-1.2-.15q-.3,0-.3-.075l.15-.15q.449-.225.15-.449a2.644,2.644,0,0,0-.9-.674.216.216,0,0,1-.075-.15.305.305,0,0,1,.225-.075q2.322-.075,2.472,1.2Q158.413-8.905,157.814-8.98Zm-3.67,6.442q.6-.3.974-.524l.075-.075a1.688,1.688,0,0,1,.6-.3l-.225-.449a4.529,4.529,0,0,0-.3-.375q-.225.15-.6.375a3.184,3.184,0,0,1-.824.524,4.109,4.109,0,0,0,.225.524A1.225,1.225,0,0,1,154.144-2.538Zm.524,1.348a7.634,7.634,0,0,0,.6,1.124l.449-.449a2.556,2.556,0,0,0,.524-.524q.449-.674-.15-1.049a.813.813,0,0,1-.3.15A10.746,10.746,0,0,0,154.668-1.19Zm2.547-2.547q.449-.15.375-.3,0-.225-.524-.674a.216.216,0,0,1-.075-.15.305.305,0,0,1,.225-.075q2.7.15,2.1,1.723-.15.524-.6.225a2.193,2.193,0,0,0-1.5-.524.066.066,0,0,1-.075-.075A.216.216,0,0,1,157.215-3.737ZM143.882-1.115a42.3,42.3,0,0,0,3.745-7.565q.3-.824,0-1.124a.432.432,0,0,1-.15-.3.3.3,0,0,1,.3-.15,2.121,2.121,0,0,1,1.648.674.415.415,0,0,1,.075.524q-.3.524-.524.9a6.819,6.819,0,0,1,1.049-.749q1.124-.225,1.5.6.075.449-.15.6a4.089,4.089,0,0,0-1.5,1.648,1.216,1.216,0,0,1,1.2.6.239.239,0,0,1-.075.375,4.661,4.661,0,0,0-1.348,1.273.715.715,0,0,1,.824.225q.225.15,0,.3a.813.813,0,0,1-.3.15l-.749.375a8.707,8.707,0,0,0-.225,2.1.216.216,0,0,1,.075-.15,4.557,4.557,0,0,1,.524-.674q.075-.225-.3-.375a.066.066,0,0,1-.075-.075.216.216,0,0,1,.075-.15q.824-.6,1.5.375a.239.239,0,0,1-.075.375,14.858,14.858,0,0,0-1.8,1.8V.682a3.683,3.683,0,0,1,1.648-.075q.3.225,0,.449a.575.575,0,0,0-.225.075q-2.4,1.124-3.371,1.723a1.86,1.86,0,0,1-.674.075,5.811,5.811,0,0,1-.749-.3q-.3-.375,0-.524a1.9,1.9,0,0,0,1.2-.524q.449-.375,1.2-1.124V-2.014a3.745,3.745,0,0,0-.524.375,2.9,2.9,0,0,0-.524.375,1.139,1.139,0,0,0,.3.6,1.179,1.179,0,0,1,.449-.3q.225-.075.15.15a1.555,1.555,0,0,0-.449.749,1.715,1.715,0,0,1-.225.9q0,.225-.3.075A1.76,1.76,0,0,1,146.5-.141a4.21,4.21,0,0,1,.15-.974,2.1,2.1,0,0,1-.824-.524q-.225-.225.075-.375a1.338,1.338,0,0,0,1.049-.524,14.347,14.347,0,0,0,1.124-.974v-.15a2.149,2.149,0,0,1-1.124-.524q-1.873,3.446-3.3,4.269-.375.15-.375-.15-.075-.6.15-.749A.48.48,0,0,0,143.882-1.115Zm3.371-3.67a2.9,2.9,0,0,1,.524-.375,1.173,1.173,0,0,1,.3-.225,9.945,9.945,0,0,0,1.2-1.648,1.707,1.707,0,0,1-.674-.375l-.6,1.2Q147.552-5.31,147.253-4.785Z" transform="translate(-22158.906 -16593.701)" fill="#999"/>
    <g id="Group_3809" data-name="Group 3809" transform="translate(-2065 122)">
      <path id="Path_13410" data-name="Path 13410" d="M52.708-6.716,55.4-6.754q.152,0,.181.038a.327.327,0,0,1,.029.171l-.038,1.6V-3.39l.038,1.6q0,.152-.038.181a.327.327,0,0,1-.171.029l-2.689-.038H46.93V-.273h6.851l2.756-.038q.171,0,.209.048a.383.383,0,0,1,.029.19l-.038,1.7V4.2l.038,1.672q0,.152-.048.181a.355.355,0,0,1-.181.029H54.932q-.162,0-.19-.038a.327.327,0,0,1-.029-.171v-.7H46.93v.741q0,.152-.048.181a.383.383,0,0,1-.19.029H45.1q-.152,0-.181-.038a.327.327,0,0,1-.029-.171l.038-2.727V-3.78l-.038-2.765q0-.152.038-.181a.355.355,0,0,1,.181-.029l2.756.038Zm2.005,8.21H46.93V3.442h7.783Zm-1.15-4.808V-4.987H46.93v1.672ZM55.882-9.8l2.547-.038a.346.346,0,0,1,.209.038.355.355,0,0,1,.029.181l-.038,1.026V-7.7l.038,2.157q0,.152-.048.19a.383.383,0,0,1-.19.029H56.842q-.162,0-.19-.048a.3.3,0,0,1-.029-.171V-8.066H44.184v2.547a.3.3,0,0,1-.038.19.327.327,0,0,1-.171.029H42.359q-.162,0-.19-.038a.355.355,0,0,1-.029-.181L42.179-7.7v-.741l-.038-1.178q0-.162.038-.19a.355.355,0,0,1,.181-.029l2.566.038h4.3v-.1a8.492,8.492,0,0,0-.143-1.853q1.093.029,2.081.114.295.029.295.181l-.1.39a3.881,3.881,0,0,0-.1,1.169v.1Zm19.3,14.017q.8.057,1.6.057.608,0,.608-.58V-9.263H70.938v11.5l.038,3.621q0,.152-.038.181a.327.327,0,0,1-.171.029H69.38q-.152,0-.181-.038a.327.327,0,0,1-.029-.171l.038-4.086V-6.678l-.038-4.143q0-.152.038-.181a.327.327,0,0,1,.171-.029l2.537.038h4.514l2.537-.038q.143,0,.171.038a.426.426,0,0,1,.019.171L79.139-6.6V.43l.038,3.4a2.076,2.076,0,0,1-.523,1.6,3.92,3.92,0,0,1-2.3.485q-.19.01-.238.01-.295,0-.371-.124a1.506,1.506,0,0,1-.152-.466A4.08,4.08,0,0,0,75.186,4.221Zm-7.45-9.579a.5.5,0,0,1,.171-.048q.086,0,.162.19A19.359,19.359,0,0,1,69.18-1.87a.6.6,0,0,1,.01.1q0,.124-.266.238l-.855.333a.753.753,0,0,1-.209.048q-.1,0-.143-.209l-.133-.741q-.371.067-1.112.143v5.35l.038,2.547a.3.3,0,0,1-.038.19.327.327,0,0,1-.171.029H64.809q-.152,0-.181-.038a.355.355,0,0,1-.029-.181l.038-2.547V-1.794q-.817.076-1.226.1a1.675,1.675,0,0,0-.722.162.581.581,0,0,1-.285.1q-.209,0-.276-.333-.152-.8-.238-1.653a13.971,13.971,0,0,0,1.444.076Q64.077-4.36,64.4-4.863a22.279,22.279,0,0,0-2.414-2.727.267.267,0,0,1-.1-.181A1,1,0,0,1,62.034-8l.732-.95q.133-.171.2-.171t.152.1l.133.133q.171.181.257.257a17.628,17.628,0,0,0,1.036-2.138,6.507,6.507,0,0,0,.295-1.055q1.207.418,1.653.627.257.143.257.295a.417.417,0,0,1-.152.266,1.8,1.8,0,0,0-.352.494,29.4,29.4,0,0,1-1.568,2.8q.523.6.741.874.722-1.178,1.207-2.1A9.877,9.877,0,0,0,67.175-9.8a15.341,15.341,0,0,1,1.558.8q.209.124.209.276a.376.376,0,0,1-.209.314,2.321,2.321,0,0,0-.589.76Q66.719-5.272,65.36-3.428q.219-.01.95-.076.523-.038.884-.057-.238-.684-.428-1.131a.3.3,0,0,1-.038-.124q0-.076.247-.19Zm9.028-.523q.219,0,.219.2v1.226q0,.152-.038.181a.355.355,0,0,1-.181.029L75.148-4.3h-.171v1.577h.209l1.634-.038q.162,0,.19.048a.383.383,0,0,1,.029.19v1.188a.286.286,0,0,1-.033.176.309.309,0,0,1-.185.033l-1.634-.038h-1.4V.354a1.094,1.094,0,0,0,.19.779,2.16,2.16,0,0,0,1,.133A8.658,8.658,0,0,0,76.2,1.18h.114a.185.185,0,0,1,.209.162,3.813,3.813,0,0,1,.029.627,2.939,2.939,0,0,1-.043.7q-.043.1-.309.119-.675.057-1.34.057a10.016,10.016,0,0,1-1.52-.076,1.4,1.4,0,0,1-.665-.295,1.031,1.031,0,0,1-.361-.542A3.772,3.772,0,0,1,72.23.99V-1.148l-.722.019q-.19,0-.19-.209V-2.526a.346.346,0,0,1,.038-.209.248.248,0,0,1,.152-.029l1.634.038h.181V-4.3h-.181l-1.577.038q-.19,0-.19-.209V-5.7q0-.2.19-.2l1.577.038h.922a17.814,17.814,0,0,0,.77-2.081,4.512,4.512,0,0,0,.181-.912,12.652,12.652,0,0,1,1.511.447q.257.114.257.238a.347.347,0,0,1-.152.266,1.115,1.115,0,0,0-.295.409l-.684,1.634ZM61.777,4.126A12.4,12.4,0,0,0,62.509.62q.048-.513.048-.893V-.625q.95.152,1.473.276.333.076.333.228a.592.592,0,0,1-.1.295A2.147,2.147,0,0,0,64.105.9a26.664,26.664,0,0,1-.656,3.564q-.114.447-.295.447a.821.821,0,0,1-.409-.219A4.47,4.47,0,0,0,61.777,4.126Zm6.11-4.979A.678.678,0,0,1,68.068-.9q.1,0,.152.181a32.982,32.982,0,0,1,.76,3.659q.01.1.009.152,0,.152-.228.238l-.912.333a.832.832,0,0,1-.219.057q-.1,0-.114-.19a26.084,26.084,0,0,0-.656-3.82.553.553,0,0,1-.029-.133q0-.086.219-.162ZM72.677-8.8a.678.678,0,0,1,.181-.048q.086,0,.19.162a8.984,8.984,0,0,1,.741,1.758.659.659,0,0,1,.029.152q0,.114-.247.2l-.855.285a.813.813,0,0,1-.238.057q-.114,0-.152-.171a6.929,6.929,0,0,0-.684-1.729.378.378,0,0,1-.057-.162q0-.076.238-.171ZM95.822,4.611H93.285L86.852-5.034V4.611H84.257V-9.814H86.8l6.4,9.664V-9.814h2.613Zm8.49-10.681a5.411,5.411,0,0,1,2.053.371,4.3,4.3,0,0,1,1.558,1.069,4.74,4.74,0,0,1,.993,1.715,7.1,7.1,0,0,1,.347,2.3,6.959,6.959,0,0,1-.356,2.309,4.85,4.85,0,0,1-1,1.715,4.246,4.246,0,0,1-1.558,1.064,5.419,5.419,0,0,1-2.034.366,5.428,5.428,0,0,1-2.015-.361,4.267,4.267,0,0,1-1.563-1.055,4.763,4.763,0,0,1-1.007-1.71A7.022,7.022,0,0,1,99.37-.616a7.013,7.013,0,0,1,.352-2.3,4.757,4.757,0,0,1,1-1.715A4.341,4.341,0,0,1,102.288-5.7,5.331,5.331,0,0,1,104.312-6.07Zm0,8.724a2.123,2.123,0,0,0,.936-.2,1.971,1.971,0,0,0,.727-.613,3.02,3.02,0,0,0,.47-1.022,5.492,5.492,0,0,0,.166-1.43,5.45,5.45,0,0,0-.166-1.421,3.075,3.075,0,0,0-.47-1.026,1.955,1.955,0,0,0-.727-.618,2.123,2.123,0,0,0-.936-.2,2.123,2.123,0,0,0-.936.2,1.955,1.955,0,0,0-.727.618,3.075,3.075,0,0,0-.47,1.026,5.45,5.45,0,0,0-.166,1.421,5.492,5.492,0,0,0,.166,1.43,3.019,3.019,0,0,0,.47,1.022,1.97,1.97,0,0,0,.727.613A2.123,2.123,0,0,0,104.312,2.653Zm10.97,1.958h-2.727V1.922h2.727Zm8.2.228a5.428,5.428,0,0,1-2.015-.361,4.267,4.267,0,0,1-1.563-1.055,4.818,4.818,0,0,1-1.012-1.71,6.937,6.937,0,0,1-.361-2.328,7.013,7.013,0,0,1,.352-2.3,4.758,4.758,0,0,1,1-1.715A4.341,4.341,0,0,1,121.453-5.7a5.358,5.358,0,0,1,2.034-.371,4.878,4.878,0,0,1,1.606.257,3.924,3.924,0,0,1,1.316.76,4.1,4.1,0,0,1,.95,1.24,5.33,5.33,0,0,1,.508,1.706h-2.7a2.34,2.34,0,0,0-.152-.77,1.631,1.631,0,0,0-.356-.556,1.462,1.462,0,0,0-.527-.337,1.825,1.825,0,0,0-.646-.114,2.123,2.123,0,0,0-.936.2,1.993,1.993,0,0,0-.732.618,3.018,3.018,0,0,0-.475,1.026,5.45,5.45,0,0,0-.166,1.421,5.492,5.492,0,0,0,.166,1.43,2.964,2.964,0,0,0,.475,1.022,2.01,2.01,0,0,0,.732.613,2.123,2.123,0,0,0,.936.2,1.762,1.762,0,0,0,.618-.109,1.553,1.553,0,0,0,.527-.328,1.628,1.628,0,0,0,.375-.546A2.143,2.143,0,0,0,125.169.9h2.7a5.188,5.188,0,0,1-.518,1.715,4.11,4.11,0,0,1-.96,1.231,3.888,3.888,0,0,1-1.311.741A4.974,4.974,0,0,1,123.487,4.839ZM134.979-6.07a5.411,5.411,0,0,1,2.053.371,4.3,4.3,0,0,1,1.558,1.069,4.74,4.74,0,0,1,.993,1.715,7.1,7.1,0,0,1,.347,2.3,6.958,6.958,0,0,1-.356,2.309,4.85,4.85,0,0,1-1,1.715,4.246,4.246,0,0,1-1.558,1.064,5.419,5.419,0,0,1-2.034.366,5.428,5.428,0,0,1-2.015-.361A4.267,4.267,0,0,1,131.4,3.423a4.763,4.763,0,0,1-1.007-1.71,7.022,7.022,0,0,1-.356-2.328,7.013,7.013,0,0,1,.352-2.3,4.757,4.757,0,0,1,1-1.715A4.341,4.341,0,0,1,132.955-5.7,5.331,5.331,0,0,1,134.979-6.07Zm0,8.724a2.123,2.123,0,0,0,.936-.2,1.97,1.97,0,0,0,.727-.613,3.019,3.019,0,0,0,.47-1.022,5.492,5.492,0,0,0,.166-1.43,5.45,5.45,0,0,0-.166-1.421,3.075,3.075,0,0,0-.47-1.026,1.954,1.954,0,0,0-.727-.618,2.123,2.123,0,0,0-.936-.2,2.123,2.123,0,0,0-.936.2,1.955,1.955,0,0,0-.727.618,3.075,3.075,0,0,0-.47,1.026,5.45,5.45,0,0,0-.166,1.421,5.492,5.492,0,0,0,.166,1.43,3.019,3.019,0,0,0,.47,1.022,1.97,1.97,0,0,0,.727.613A2.123,2.123,0,0,0,134.979,2.653Zm22.269,1.958h-2.6V-2.013a2.94,2.94,0,0,0-.238-1.387.858.858,0,0,0-.808-.409,2.844,2.844,0,0,0-2.024,1.254V4.611h-2.556V-2.013a2.889,2.889,0,0,0-.242-1.387.869.869,0,0,0-.812-.409,2.863,2.863,0,0,0-2.015,1.254V4.611h-2.566V-5.823h2.566v.6a3.9,3.9,0,0,1,1.1-.641,3.4,3.4,0,0,1,1.183-.2,3.821,3.821,0,0,1,1.7.342,2.561,2.561,0,0,1,1.1,1.055,6.875,6.875,0,0,1,.8-.732,3.6,3.6,0,0,1,.7-.423,2.538,2.538,0,0,1,.646-.195,4.375,4.375,0,0,1,.656-.048q3.411,0,3.411,3.982Z" transform="translate(-20091.293 -16740.154)" fill="#333"/>
      <path id="Path_13434" data-name="Path 13434" d="M3.644-16.777q0,.152-.047.189a.3.3,0,0,1-.17.028H1.853q-.152,0-.18-.047a.3.3,0,0,1-.028-.17l.038-1.553v-.388l-.038-.739q0-.152.038-.18a.354.354,0,0,1,.18-.028l2.548.038H8.683a8.487,8.487,0,0,0-.152-1.411q1.089.028,2.093.114.294.028.294.2l-.142.36a2.626,2.626,0,0,0-.076.739h4.575l2.567-.038q.152,0,.18.038a.326.326,0,0,1,.028.17l-.038.663v.464l.038,1.553a.3.3,0,0,1-.038.189.326.326,0,0,1-.17.028H16.175l-.142.8,2.33-.038q.142,0,.17.038a.607.607,0,0,1,.019.189v1.032q0,.208-.189.208l-2.425-.038h-.133l-.275,1.553a.235.235,0,0,1-.256.237L13.4-12.619H5.188l-1.8.038q-.256,0-.256-.114a.287.287,0,0,1,.028-.1,13.035,13.035,0,0,0,.521-1.572l-2.349.038a.3.3,0,0,1-.17-.028.322.322,0,0,1-.028-.18v-1.032a.378.378,0,0,1,.028-.2.326.326,0,0,1,.17-.028l2.538.038H4q.114-.578.256-1.534a.209.209,0,0,1,.237-.237l2.387.038H13.4l2.671-.038v-.7H3.644ZM13.7-13.689l.18-.8H10.605l-.18.8Zm.511-2.737H10.937l-.142.777h3.3ZM5.443-13.689H8.569l.17-.8H5.68Zm.521-1.961H8.976q.066-.284.133-.777H6.144ZM18.543-4.672a7.763,7.763,0,0,0-.957,1.222q-.237.341-.426.341a2.62,2.62,0,0,1-.388-.057,15.483,15.483,0,0,1-5.295-1.743q-.133-.066-.133-.095,0-.047.227-.18L12.718-5.8H6.608q.35.152,1.336.616.256.133.256.275,0,.18-.275.237a2.961,2.961,0,0,0-.777.313,16.333,16.333,0,0,1-4.48,1.193,2.384,2.384,0,0,1-.35.057q-.18,0-.426-.36A5.858,5.858,0,0,0,1-4.653,18.973,18.973,0,0,0,5.368-5.43q.625-.265.815-.369-.919.009-1.658.028l-.493.009A.345.345,0,0,1,3.824-5.8a.354.354,0,0,1-.028-.18l.038-1.7v-2.4l-.038-1.7q0-.17.047-.208A.382.382,0,0,1,4.032-12l2.671.038h6.289L15.682-12q.161,0,.189.047a.382.382,0,0,1,.028.189l-.038,1.7v2.4l.038,1.7a.308.308,0,0,1-.033.185.308.308,0,0,1-.185.033l-.3-.009q-.919-.019-2-.028A18.2,18.2,0,0,0,18.543-4.672ZM14-10.9H5.7v.673H14Zm0,4.007v-.673H5.7v.673ZM5.7-8.546H14v-.691H5.7Zm30.719-6.128H31.511A16.838,16.838,0,0,1,30.545-10a11.249,11.249,0,0,1-2.463,3.865,14.043,14.043,0,0,1-3.4,2.482,3.119,3.119,0,0,1-.464.17q-.161,0-.464-.407a4.188,4.188,0,0,0-1.222-1.127q4.7-2.046,6.034-5.759a15.256,15.256,0,0,0,.815-3.9H26.349l-2.6.038q-.17,0-.2-.038a.278.278,0,0,1-.038-.18v-1.591q0-.152.047-.18a.382.382,0,0,1,.189-.028l2.6.038h3.126l.019-1.686a17.332,17.332,0,0,0-.17-2.586,21.673,21.673,0,0,1,2.283.218q.388.047.388.275a.951.951,0,0,1-.17.483,5.458,5.458,0,0,0-.152,1.648q0,1.089-.019,1.648h4.073l2.652-.038a.209.209,0,0,1,.237.237q-.038.578-.038,1.743a53,53,0,0,1-.606,8.515,3,3,0,0,1-1.127,2.046,3.762,3.762,0,0,1-2.112.511q-.17.009-.369.009a14.582,14.582,0,0,1-1.487-.085q-.474-.038-.559-.152a1.6,1.6,0,0,1-.161-.54A4.766,4.766,0,0,0,31.587-5.9a17.839,17.839,0,0,0,2.917.246,1.36,1.36,0,0,0,1.411-1.3A46.66,46.66,0,0,0,36.418-14.675Z" transform="translate(-20091.801 -16730.961)" fill="#333"/>
    </g>
  </g>
</svg>
